<svg width="600" height="400" viewBox="0 0 600 400" fill="none" xmlns="http://www.w3.org/2000/svg">
  <!-- Background gradient -->
  <rect width="600" height="400" fill="url(#heroGradient)"/>
  
  <!-- Grid pattern -->
  <defs>
    <pattern id="grid" width="20" height="20" patternUnits="userSpaceOnUse">
      <path d="M 20 0 L 0 0 0 20" fill="none" stroke="rgba(59,130,246,0.1)" stroke-width="1"/>
    </pattern>
  </defs>
  <rect width="600" height="400" fill="url(#grid)"/>
  
  <!-- Central dashboard mockup -->
  <rect x="50" y="50" width="500" height="300" rx="12" fill="rgba(17,24,39,0.8)" stroke="rgba(59,130,246,0.3)" stroke-width="2"/>
  
  <!-- Header bar -->
  <rect x="60" y="60" width="480" height="40" rx="6" fill="rgba(31,41,55,0.9)"/>
  <circle cx="80" cy="80" r="8" fill="#EF4444"/>
  <circle cx="100" cy="80" r="8" fill="#F59E0B"/>
  <circle cx="120" cy="80" r="8" fill="#10B981"/>
  
  <!-- Main content areas -->
  <rect x="70" y="120" width="220" height="120" rx="8" fill="rgba(31,41,55,0.6)"/>
  <rect x="310" y="120" width="220" height="120" rx="8" fill="rgba(31,41,55,0.6)"/>
  
  <!-- Charts simulation -->
  <path d="M80 220 L120 200 L160 180 L200 160 L240 140" stroke="#3B82F6" stroke-width="3" fill="none"/>
  <path d="M80 220 L120 210 L160 190 L200 170 L240 150" stroke="#8B5CF6" stroke-width="3" fill="none"/>
  
  <!-- Bar chart -->
  <rect x="320" y="200" width="20" height="30" fill="#10B981"/>
  <rect x="350" y="180" width="20" height="50" fill="#3B82F6"/>
  <rect x="380" y="190" width="20" height="40" fill="#8B5CF6"/>
  <rect x="410" y="170" width="20" height="60" fill="#EC4899"/>
  <rect x="440" y="185" width="20" height="45" fill="#F59E0B"/>
  
  <!-- Stats boxes -->
  <rect x="70" y="260" width="100" height="60" rx="6" fill="rgba(16,185,129,0.1)" stroke="rgba(16,185,129,0.3)"/>
  <rect x="190" y="260" width="100" height="60" rx="6" fill="rgba(59,130,246,0.1)" stroke="rgba(59,130,246,0.3)"/>
  <rect x="310" y="260" width="100" height="60" rx="6" fill="rgba(139,92,246,0.1)" stroke="rgba(139,92,246,0.3)"/>
  <rect x="430" y="260" width="100" height="60" rx="6" fill="rgba(236,72,153,0.1)" stroke="rgba(236,72,153,0.3)"/>
  
  <!-- Floating elements -->
  <circle cx="480" cy="80" r="30" fill="rgba(59,130,246,0.2)" stroke="#3B82F6" stroke-width="2"/>
  <path d="M470 70 L480 80 L490 70 M480 90 V80" stroke="#3B82F6" stroke-width="2" stroke-linecap="round"/>
  
  <circle cx="520" cy="140" r="25" fill="rgba(139,92,246,0.2)" stroke="#8B5CF6" stroke-width="2"/>
  <rect x="510" y="130" width="20" height="20" rx="3" fill="none" stroke="#8B5CF6" stroke-width="2"/>
  
  <!-- Connection lines -->
  <path d="M100 350 Q200 320 300 350 Q400 380 500 350" stroke="rgba(59,130,246,0.4)" stroke-width="2" fill="none" stroke-dasharray="5,5"/>
  
  <!-- Animated dots -->
  <circle cx="150" cy="345" r="3" fill="#3B82F6">
    <animate attributeName="opacity" values="0;1;0" dur="2s" repeatCount="indefinite"/>
  </circle>
  <circle cx="350" cy="355" r="3" fill="#8B5CF6">
    <animate attributeName="opacity" values="0;1;0" dur="2s" begin="0.5s" repeatCount="indefinite"/>
  </circle>
  <circle cx="450" cy="350" r="3" fill="#EC4899">
    <animate attributeName="opacity" values="0;1;0" dur="2s" begin="1s" repeatCount="indefinite"/>
  </circle>
  
  <defs>
    <linearGradient id="heroGradient" x1="0" y1="0" x2="600" y2="400" gradientUnits="userSpaceOnUse">
      <stop stop-color="rgba(17,24,39,0.9)"/>
      <stop offset="0.5" stop-color="rgba(31,41,55,0.8)"/>
      <stop offset="1" stop-color="rgba(17,24,39,0.9)"/>
    </linearGradient>
  </defs>
</svg>